<svg width="273" height="49" viewBox="0 0 273 49" fill="none" xmlns="http://www.w3.org/2000/svg">
<path d="M273 0.474976H0V48.475H273V0.474976Z" fill="#FF267E"/>
<path d="M88.3419 23.5458H72.0808V18.9007H91.7818V12.5523H62.543V36.5523H72.0808V30.0491H88.3419V23.5458Z" fill="#000055"/>
<path d="M139.94 28.5007L131.34 12.5523H120.552L134.624 36.5523H145.256L159.328 12.5523H148.696L139.94 28.5007Z" fill="#000055"/>
<path d="M189.505 24.32C191.694 23.5458 193.101 21.3781 193.101 19.2103C193.101 15.3394 189.661 12.5523 183.094 12.5523H161.829V36.5523H183.563C190.599 36.5523 193.883 33.7652 193.883 29.7394C193.883 27.4168 192.475 25.4039 189.505 24.32ZM171.054 18.2813H181.53C182.469 18.1265 183.407 18.9007 183.563 19.9845C183.719 20.9136 182.938 21.8426 181.843 21.9974C181.687 21.9974 181.687 21.9974 181.53 21.9974H171.054V18.2813ZM182.312 30.8232H171.054V27.1071H182.312C183.25 26.9523 184.188 27.7265 184.345 28.8103C184.501 29.7394 183.719 30.6684 182.625 30.8232C182.625 30.8232 182.469 30.8232 182.312 30.8232Z" fill="#000055"/>
<path d="M207.799 27.1071H224.06V21.8426H207.799V18.9007H225.78V12.5523H198.418V36.5523H226.249V30.0491H207.799V27.1071Z" fill="#000055"/>
<path d="M230.158 12.5523V18.9007H240.634V36.5523H250.171V18.9007H260.804V12.5523H230.158Z" fill="#000055"/>
<path d="M102.727 12.5523L88.6545 36.5523H98.6614L100.538 32.991H115.548L117.424 36.5523H127.9L113.828 12.5523H102.727ZM103.978 26.7974L108.199 19.0555L112.421 26.7974H103.978Z" fill="#000055"/>
<path d="M12.196 21.9976L20.6393 36.5525H31.2716L22.9847 21.9976H12.196Z" fill="#000055"/>
<path d="M39.7148 21.9976L31.2715 36.5525H42.0601L50.3471 21.9976H39.7148Z" fill="#000055"/>
<path d="M31.2716 7.28784L22.9846 21.9975H39.7149L31.2716 7.28784Z" fill="#000055"/>
</svg>
