<svg width="64" height="64" viewBox="0 0 64 64" fill="none" xmlns="http://www.w3.org/2000/svg">
<path d="M20.6182 26.0954V43.7164H25.0897V20.2217H21.5398C21.0619 22.148 20.2768 22.8427 17 22.8427V26.0954H20.6182Z" fill="#E8E8E8"/>
<path d="M40.2858 25.1158C40.2858 21.9579 38.7498 20 34.4148 20H33.7321C29.1924 20 27.8612 21.9579 27.8612 25.1158V27.1053C27.8612 29.9474 29.7044 30.8 30.2846 31.0526C29.7044 31.2737 27.554 32.1579 27.554 35.0947V38.6316C27.554 41.6947 28.8852 44 33.5956 44H34.4831C39.0228 44 40.6271 41.6947 40.6271 38.6316V35.0947C40.6271 32.0947 38.3743 31.2737 37.7599 31.0526C38.3402 30.8 40.2858 29.9474 40.2858 27.1053V25.1158ZM36.0191 27.3263C36.0191 28.6842 35.4388 29.4105 34.1076 29.4105C32.7423 29.4105 32.162 28.6842 32.162 27.2947V25.4C32.162 23.9789 32.7764 23.3789 34.0735 23.3789C35.4388 23.3789 36.0191 23.9789 36.0191 25.4V27.3263ZM36.0874 38.2211C36.0874 39.5789 35.4729 40.4 34.1076 40.4C32.6399 40.4 32.0937 39.5789 32.0937 38.2211V35.2211C32.0937 33.8632 32.6399 33.0421 34.0735 33.0421C35.5071 33.0421 36.0874 33.9263 36.0874 35.2211V38.2211Z" fill="#E8E8E8"/>
<path d="M50.0002 32.7706V31.1409H47.2405V28.3887H45.2638V31.1409H42.5042V32.7706H45.2638V35.541H47.2405V32.7706H50.0002Z" fill="#E8E8E8"/>
<circle cx="32" cy="32" r="31.5" stroke="#E8E8E8"/>
</svg>
